<?xml version="1.0" standalone="no"?>
<svg xmlns:xlink="http://www.w3.org/1999/xlink" id="wave" style="transform:rotate(0deg); transition: 0.3s" viewBox="0 0 1440 490" version="1.1" xmlns="http://www.w3.org/2000/svg"><defs><linearGradient id="sw-gradient-0" x1="0" x2="0" y1="1" y2="0"><stop stop-color="rgba(78.552, 219.137, 255, 1)" offset="0%"/><stop stop-color="rgba(212.061, 190.223, 141.948, 1)" offset="100%"/></linearGradient></defs><path style="transform:translate(0, 0px); opacity:1" fill="url(#sw-gradient-0)" d="M0,49L16,65.3C32,82,64,114,96,106.2C128,98,160,49,192,32.7C224,16,256,33,288,81.7C320,131,352,212,384,220.5C416,229,448,163,480,130.7C512,98,544,98,576,81.7C608,65,640,33,672,49C704,65,736,131,768,196C800,261,832,327,864,367.5C896,408,928,425,960,375.7C992,327,1024,212,1056,204.2C1088,196,1120,294,1152,334.8C1184,376,1216,359,1248,318.5C1280,278,1312,212,1344,163.3C1376,114,1408,82,1440,106.2C1472,131,1504,212,1536,204.2C1568,196,1600,98,1632,106.2C1664,114,1696,229,1728,269.5C1760,310,1792,278,1824,228.7C1856,180,1888,114,1920,138.8C1952,163,1984,278,2016,302.2C2048,327,2080,261,2112,245C2144,229,2176,261,2208,285.8C2240,310,2272,327,2288,334.8L2304,343L2304,490L2288,490C2272,490,2240,490,2208,490C2176,490,2144,490,2112,490C2080,490,2048,490,2016,490C1984,490,1952,490,1920,490C1888,490,1856,490,1824,490C1792,490,1760,490,1728,490C1696,490,1664,490,1632,490C1600,490,1568,490,1536,490C1504,490,1472,490,1440,490C1408,490,1376,490,1344,490C1312,490,1280,490,1248,490C1216,490,1184,490,1152,490C1120,490,1088,490,1056,490C1024,490,992,490,960,490C928,490,896,490,864,490C832,490,800,490,768,490C736,490,704,490,672,490C640,490,608,490,576,490C544,490,512,490,480,490C448,490,416,490,384,490C352,490,320,490,288,490C256,490,224,490,192,490C160,490,128,490,96,490C64,490,32,490,16,490L0,490Z"/></svg>